<?xml version="1.0" encoding="UTF-8" standalone="no"?>
<!DOCTYPE svg PUBLIC "-//W3C//DTD SVG 1.1//EN"
 "http://www.w3.org/Graphics/SVG/1.1/DTD/svg11.dtd">
<!-- Generated by graphviz version 5.0.0 (20220707.1540)
 -->
<!-- Title: dependencies Pages: 1 -->
<svg width="1184pt" height="174pt"
 viewBox="0.00 0.00 1184.00 173.80" xmlns="http://www.w3.org/2000/svg" xmlns:xlink="http://www.w3.org/1999/xlink">
<g id="graph0" class="graph" transform="scale(1 1) rotate(0) translate(4 169.8)">
<title>dependencies</title>
<polygon fill="white" stroke="transparent" points="-4,4 -4,-169.8 1180,-169.8 1180,4 -4,4"/>
<text text-anchor="middle" x="588" y="-8.2" font-family="sans-serif" font-size="14.00">dependencies</text>
<g id="clust1" class="cluster">
<title>cluster_AppModule</title>
<polygon fill="none" stroke="black" stroke-dasharray="1,5" points="8,-32.8 8,-157.8 1168,-157.8 1168,-32.8 8,-32.8"/>
</g>
<g id="clust6" class="cluster">
<title>cluster_AppModule_providers</title>
<polygon fill="none" stroke="black" points="1030,-40.8 1030,-92.8 1160,-92.8 1160,-40.8 1030,-40.8"/>
</g>
<g id="clust3" class="cluster">
<title>cluster_AppModule_imports</title>
<polygon fill="none" stroke="black" points="16,-40.8 16,-92.8 1022,-92.8 1022,-40.8 16,-40.8"/>
</g>
<!-- AuthModule -->
<g id="node1" class="node">
<title>AuthModule</title>
<polygon fill="#8dd3c7" stroke="black" points="1013.55,-84.8 1010.55,-88.8 989.55,-88.8 986.55,-84.8 926.45,-84.8 926.45,-48.8 1013.55,-48.8 1013.55,-84.8"/>
<text text-anchor="middle" x="970" y="-62.6" font-family="Times,serif" font-size="14.00">AuthModule</text>
</g>
<!-- AppModule -->
<g id="node9" class="node">
<title>AppModule</title>
<polygon fill="#8dd3c7" stroke="black" points="648.66,-149.8 645.66,-153.8 624.66,-153.8 621.66,-149.8 565.34,-149.8 565.34,-113.8 648.66,-113.8 648.66,-149.8"/>
<text text-anchor="middle" x="607" y="-127.6" font-family="Times,serif" font-size="14.00">AppModule</text>
</g>
<!-- AuthModule&#45;&gt;AppModule -->
<g id="edge1" class="edge">
<title>AuthModule&#45;&gt;AppModule</title>
<path fill="none" stroke="black" d="M970,-84.93C970,-105.37 970,-135.8 970,-135.8 970,-135.8 659,-135.8 659,-135.8"/>
<polygon fill="black" stroke="black" points="659,-132.3 649,-135.8 659,-139.3 659,-132.3"/>
</g>
<!-- FavoritesModule -->
<g id="node2" class="node">
<title>FavoritesModule</title>
<polygon fill="#8dd3c7" stroke="black" points="907.66,-84.8 904.66,-88.8 883.66,-88.8 880.66,-84.8 796.34,-84.8 796.34,-48.8 907.66,-48.8 907.66,-84.8"/>
<text text-anchor="middle" x="852" y="-62.6" font-family="Times,serif" font-size="14.00">FavoritesModule</text>
</g>
<!-- FavoritesModule&#45;&gt;AppModule -->
<g id="edge2" class="edge">
<title>FavoritesModule&#45;&gt;AppModule</title>
<path fill="none" stroke="black" d="M852,-85.07C852,-103.36 852,-128.8 852,-128.8 852,-128.8 658.84,-128.8 658.84,-128.8"/>
<polygon fill="black" stroke="black" points="658.84,-125.3 648.84,-128.8 658.84,-132.3 658.84,-125.3"/>
</g>
<!-- GroupModule -->
<g id="node3" class="node">
<title>GroupModule</title>
<polygon fill="#8dd3c7" stroke="black" points="778.82,-84.8 775.82,-88.8 754.82,-88.8 751.82,-84.8 683.18,-84.8 683.18,-48.8 778.82,-48.8 778.82,-84.8"/>
<text text-anchor="middle" x="731" y="-62.6" font-family="Times,serif" font-size="14.00">GroupModule</text>
</g>
<!-- GroupModule&#45;&gt;AppModule -->
<g id="edge3" class="edge">
<title>GroupModule&#45;&gt;AppModule</title>
<path fill="none" stroke="black" d="M731,-84.81C731,-100.85 731,-121.8 731,-121.8 731,-121.8 658.98,-121.8 658.98,-121.8"/>
<polygon fill="black" stroke="black" points="658.98,-118.3 648.98,-121.8 658.98,-125.3 658.98,-118.3"/>
</g>
<!-- IngredientModule -->
<g id="node4" class="node">
<title>IngredientModule</title>
<polygon fill="#8dd3c7" stroke="black" points="665.58,-84.8 662.58,-88.8 641.58,-88.8 638.58,-84.8 548.42,-84.8 548.42,-48.8 665.58,-48.8 665.58,-84.8"/>
<text text-anchor="middle" x="607" y="-62.6" font-family="Times,serif" font-size="14.00">IngredientModule</text>
</g>
<!-- IngredientModule&#45;&gt;AppModule -->
<g id="edge4" class="edge">
<title>IngredientModule&#45;&gt;AppModule</title>
<path fill="none" stroke="black" d="M607,-84.91C607,-84.91 607,-103.79 607,-103.79"/>
<polygon fill="black" stroke="black" points="603.5,-103.79 607,-113.79 610.5,-103.79 603.5,-103.79"/>
</g>
<!-- NotificationsModule -->
<g id="node5" class="node">
<title>NotificationsModule</title>
<polygon fill="#8dd3c7" stroke="black" points="530.15,-84.8 527.15,-88.8 506.15,-88.8 503.15,-84.8 397.85,-84.8 397.85,-48.8 530.15,-48.8 530.15,-84.8"/>
<text text-anchor="middle" x="464" y="-62.6" font-family="Times,serif" font-size="14.00">NotificationsModule</text>
</g>
<!-- NotificationsModule&#45;&gt;AppModule -->
<g id="edge5" class="edge">
<title>NotificationsModule&#45;&gt;AppModule</title>
<path fill="none" stroke="black" d="M464,-84.81C464,-100.85 464,-121.8 464,-121.8 464,-121.8 555.25,-121.8 555.25,-121.8"/>
<polygon fill="black" stroke="black" points="555.25,-125.3 565.25,-121.8 555.25,-118.3 555.25,-125.3"/>
</g>
<!-- RecipeModule -->
<g id="node6" class="node">
<title>RecipeModule</title>
<polygon fill="#8dd3c7" stroke="black" points="379.42,-84.8 376.42,-88.8 355.42,-88.8 352.42,-84.8 280.58,-84.8 280.58,-48.8 379.42,-48.8 379.42,-84.8"/>
<text text-anchor="middle" x="330" y="-62.6" font-family="Times,serif" font-size="14.00">RecipeModule</text>
</g>
<!-- RecipeModule&#45;&gt;AppModule -->
<g id="edge6" class="edge">
<title>RecipeModule&#45;&gt;AppModule</title>
<path fill="none" stroke="black" d="M330,-85.07C330,-103.36 330,-128.8 330,-128.8 330,-128.8 555.23,-128.8 555.23,-128.8"/>
<polygon fill="black" stroke="black" points="555.23,-132.3 565.23,-128.8 555.23,-125.3 555.23,-132.3"/>
</g>
<!-- ShoppingListModule -->
<g id="node7" class="node">
<title>ShoppingListModule</title>
<polygon fill="#8dd3c7" stroke="black" points="262.51,-84.8 259.51,-88.8 238.51,-88.8 235.51,-84.8 127.49,-84.8 127.49,-48.8 262.51,-48.8 262.51,-84.8"/>
<text text-anchor="middle" x="195" y="-62.6" font-family="Times,serif" font-size="14.00">ShoppingListModule</text>
</g>
<!-- ShoppingListModule&#45;&gt;AppModule -->
<g id="edge7" class="edge">
<title>ShoppingListModule&#45;&gt;AppModule</title>
<path fill="none" stroke="black" d="M195,-84.93C195,-105.37 195,-135.8 195,-135.8 195,-135.8 555.23,-135.8 555.23,-135.8"/>
<polygon fill="black" stroke="black" points="555.23,-139.3 565.23,-135.8 555.23,-132.3 555.23,-139.3"/>
</g>
<!-- UserModule -->
<g id="node8" class="node">
<title>UserModule</title>
<polygon fill="#8dd3c7" stroke="black" points="109.99,-84.8 106.99,-88.8 85.99,-88.8 82.99,-84.8 24.01,-84.8 24.01,-48.8 109.99,-48.8 109.99,-84.8"/>
<text text-anchor="middle" x="67" y="-62.6" font-family="Times,serif" font-size="14.00">UserModule</text>
</g>
<!-- UserModule&#45;&gt;AppModule -->
<g id="edge8" class="edge">
<title>UserModule&#45;&gt;AppModule</title>
<path fill="none" stroke="black" d="M67,-84.81C67,-107.29 67,-142.8 67,-142.8 67,-142.8 555.08,-142.8 555.08,-142.8"/>
<polygon fill="black" stroke="black" points="555.08,-146.3 565.08,-142.8 555.08,-139.3 555.08,-146.3"/>
</g>
<!-- AppService -->
<g id="node10" class="node">
<title>AppService</title>
<ellipse fill="#fdb462" stroke="black" cx="1095" cy="-66.8" rx="56.75" ry="18"/>
<text text-anchor="middle" x="1095" y="-62.6" font-family="Times,serif" font-size="14.00">AppService</text>
</g>
<!-- AppService&#45;&gt;AppModule -->
<g id="edge9" class="edge">
<title>AppService&#45;&gt;AppModule</title>
<path fill="none" stroke="black" d="M1095,-84.81C1095,-107.29 1095,-142.8 1095,-142.8 1095,-142.8 659.03,-142.8 659.03,-142.8"/>
<polygon fill="black" stroke="black" points="659.03,-139.3 649.03,-142.8 659.03,-146.3 659.03,-139.3"/>
</g>
</g>
</svg>
